<svg width="906" height="203" viewBox="0 0 906 203" fill="none" xmlns="http://www.w3.org/2000/svg">
<g filter="url(#filter0_i_107:74)">
<path d="M32 2H886.5C897.27 2 906 10.7304 906 21.5C906 32.2696 897.27 41 886.5 41H32V2Z" fill="#C2FA7C"/>
</g>
<g filter="url(#filter1_i_107:74)">
<path d="M34 164H783.5C794.27 164 803 172.73 803 183.5C803 194.27 794.27 203 783.5 203H34V164Z" fill="#C2FA7C"/>
</g>
<g filter="url(#filter2_i_107:74)">
<path d="M34 110H480.5C491.27 110 500 118.73 500 129.5C500 140.27 491.27 149 480.5 149H34V110Z" fill="#C2FA7C"/>
</g>
<g filter="url(#filter3_i_107:74)">
<path d="M32 56H480.5C491.27 56 500 64.7304 500 75.5C500 86.2696 491.27 95 480.5 95H32V56Z" fill="#C2FA7C"/>
</g>
<circle cx="5" cy="22" r="5" fill="#4F4747"/>
<circle cx="5" cy="184" r="5" fill="#4F4747"/>
<circle cx="5" cy="130" r="5" fill="#4F4747"/>
<circle cx="5" cy="71" r="5" fill="#4F4747"/>
<g filter="url(#filter4_f_107:74)">
<path d="M32 10H853C856.866 10 860 13.134 860 17C860 20.866 856.866 24 853 24H32V10Z" fill="#FDF295" fill-opacity="0.3"/>
</g>
<g filter="url(#filter5_f_107:74)">
<path d="M34 174H764C767.866 174 771 177.134 771 181C771 184.866 767.866 188 764 188H34V174Z" fill="#FDF295" fill-opacity="0.3"/>
</g>
<g filter="url(#filter6_f_107:74)">
<path d="M34 121H469C472.866 121 476 124.134 476 128C476 131.866 472.866 135 469 135H34V121Z" fill="#FDF295" fill-opacity="0.3"/>
</g>
<g filter="url(#filter7_f_107:74)">
<path d="M32 66H469C472.866 66 476 69.134 476 73C476 76.866 472.866 80 469 80H32V66Z" fill="#FDF295" fill-opacity="0.3"/>
</g>
<defs>
<filter id="filter0_i_107:74" x="32" y="2" width="874" height="43" filterUnits="userSpaceOnUse" color-interpolation-filters="sRGB">
<feFlood flood-opacity="0" result="BackgroundImageFix"/>
<feBlend mode="normal" in="SourceGraphic" in2="BackgroundImageFix" result="shape"/>
<feColorMatrix in="SourceAlpha" type="matrix" values="0 0 0 0 0 0 0 0 0 0 0 0 0 0 0 0 0 0 127 0" result="hardAlpha"/>
<feOffset dy="4"/>
<feGaussianBlur stdDeviation="2"/>
<feComposite in2="hardAlpha" operator="arithmetic" k2="-1" k3="1"/>
<feColorMatrix type="matrix" values="0 0 0 0 0 0 0 0 0 0 0 0 0 0 0 0 0 0 0.25 0"/>
<feBlend mode="normal" in2="shape" result="effect1_innerShadow_107:74"/>
</filter>
<filter id="filter1_i_107:74" x="34" y="164" width="769" height="43" filterUnits="userSpaceOnUse" color-interpolation-filters="sRGB">
<feFlood flood-opacity="0" result="BackgroundImageFix"/>
<feBlend mode="normal" in="SourceGraphic" in2="BackgroundImageFix" result="shape"/>
<feColorMatrix in="SourceAlpha" type="matrix" values="0 0 0 0 0 0 0 0 0 0 0 0 0 0 0 0 0 0 127 0" result="hardAlpha"/>
<feOffset dy="4"/>
<feGaussianBlur stdDeviation="2"/>
<feComposite in2="hardAlpha" operator="arithmetic" k2="-1" k3="1"/>
<feColorMatrix type="matrix" values="0 0 0 0 0 0 0 0 0 0 0 0 0 0 0 0 0 0 0.25 0"/>
<feBlend mode="normal" in2="shape" result="effect1_innerShadow_107:74"/>
</filter>
<filter id="filter2_i_107:74" x="34" y="110" width="466" height="43" filterUnits="userSpaceOnUse" color-interpolation-filters="sRGB">
<feFlood flood-opacity="0" result="BackgroundImageFix"/>
<feBlend mode="normal" in="SourceGraphic" in2="BackgroundImageFix" result="shape"/>
<feColorMatrix in="SourceAlpha" type="matrix" values="0 0 0 0 0 0 0 0 0 0 0 0 0 0 0 0 0 0 127 0" result="hardAlpha"/>
<feOffset dy="4"/>
<feGaussianBlur stdDeviation="2"/>
<feComposite in2="hardAlpha" operator="arithmetic" k2="-1" k3="1"/>
<feColorMatrix type="matrix" values="0 0 0 0 0 0 0 0 0 0 0 0 0 0 0 0 0 0 0.25 0"/>
<feBlend mode="normal" in2="shape" result="effect1_innerShadow_107:74"/>
</filter>
<filter id="filter3_i_107:74" x="32" y="56" width="468" height="43" filterUnits="userSpaceOnUse" color-interpolation-filters="sRGB">
<feFlood flood-opacity="0" result="BackgroundImageFix"/>
<feBlend mode="normal" in="SourceGraphic" in2="BackgroundImageFix" result="shape"/>
<feColorMatrix in="SourceAlpha" type="matrix" values="0 0 0 0 0 0 0 0 0 0 0 0 0 0 0 0 0 0 127 0" result="hardAlpha"/>
<feOffset dy="4"/>
<feGaussianBlur stdDeviation="2"/>
<feComposite in2="hardAlpha" operator="arithmetic" k2="-1" k3="1"/>
<feColorMatrix type="matrix" values="0 0 0 0 0 0 0 0 0 0 0 0 0 0 0 0 0 0 0.25 0"/>
<feBlend mode="normal" in2="shape" result="effect1_innerShadow_107:74"/>
</filter>
<filter id="filter4_f_107:74" x="22" y="0" width="848" height="34" filterUnits="userSpaceOnUse" color-interpolation-filters="sRGB">
<feFlood flood-opacity="0" result="BackgroundImageFix"/>
<feBlend mode="normal" in="SourceGraphic" in2="BackgroundImageFix" result="shape"/>
<feGaussianBlur stdDeviation="5" result="effect1_foregroundBlur_107:74"/>
</filter>
<filter id="filter5_f_107:74" x="24" y="164" width="757" height="34" filterUnits="userSpaceOnUse" color-interpolation-filters="sRGB">
<feFlood flood-opacity="0" result="BackgroundImageFix"/>
<feBlend mode="normal" in="SourceGraphic" in2="BackgroundImageFix" result="shape"/>
<feGaussianBlur stdDeviation="5" result="effect1_foregroundBlur_107:74"/>
</filter>
<filter id="filter6_f_107:74" x="24" y="111" width="462" height="34" filterUnits="userSpaceOnUse" color-interpolation-filters="sRGB">
<feFlood flood-opacity="0" result="BackgroundImageFix"/>
<feBlend mode="normal" in="SourceGraphic" in2="BackgroundImageFix" result="shape"/>
<feGaussianBlur stdDeviation="5" result="effect1_foregroundBlur_107:74"/>
</filter>
<filter id="filter7_f_107:74" x="22" y="56" width="464" height="34" filterUnits="userSpaceOnUse" color-interpolation-filters="sRGB">
<feFlood flood-opacity="0" result="BackgroundImageFix"/>
<feBlend mode="normal" in="SourceGraphic" in2="BackgroundImageFix" result="shape"/>
<feGaussianBlur stdDeviation="5" result="effect1_foregroundBlur_107:74"/>
</filter>
</defs>
</svg>
